<svg width="180" height="39" viewBox="0 0 180 39" fill="none" xmlns="http://www.w3.org/2000/svg">
<g filter="url(#filter0_d_1_8)">
<path d="M17.28 24.336L8.352 12.48C8.176 12.272 8.008 12.056 7.848 11.832C7.688 11.608 7.52 11.376 7.344 11.136H7.32L7.392 20.472C7.392 20.872 7.384 21.272 7.368 21.672C7.368 22.072 7.352 22.44 7.32 22.776C7.592 22.744 7.888 22.728 8.208 22.728C8.544 22.712 8.832 22.696 9.072 22.68V24H4.32V22.944C4.768 22.944 5.104 22.856 5.328 22.68C5.568 22.504 5.728 22.272 5.808 21.984C5.904 21.696 5.952 21.36 5.952 20.976V10.224C5.952 9.904 5.952 9.584 5.952 9.264C5.952 8.944 5.96 8.664 5.976 8.424C5.72 8.44 5.432 8.456 5.112 8.472C4.808 8.488 4.536 8.504 4.296 8.52V7.2H7.464L15.912 18.312C16.184 18.664 16.424 18.992 16.632 19.296C16.856 19.6 17.072 19.888 17.28 20.16H17.304L17.328 10.296C17.328 9.944 17.336 9.608 17.352 9.288C17.368 8.952 17.384 8.664 17.4 8.424C17.112 8.44 16.808 8.456 16.488 8.472C16.168 8.488 15.888 8.504 15.648 8.52V7.2H20.4V8.256C19.888 8.272 19.512 8.384 19.272 8.592C19.048 8.784 18.904 9.072 18.84 9.456C18.792 9.824 18.768 10.312 18.768 10.92L18.744 24.336H17.28ZM22.2429 22.992C22.7229 22.992 23.0589 22.88 23.2509 22.656C23.4429 22.432 23.5549 22.12 23.5869 21.72C23.6349 21.32 23.6589 20.856 23.6589 20.328V15.36C23.6589 15.088 23.6669 14.816 23.6829 14.544C23.6989 14.256 23.7229 13.952 23.7549 13.632C23.4829 13.648 23.1949 13.664 22.8909 13.68C22.5869 13.68 22.3069 13.688 22.0509 13.704V12.432C22.7709 12.432 23.3389 12.4 23.7549 12.336C24.1869 12.256 24.5149 12.168 24.7389 12.072C24.9789 11.976 25.1549 11.872 25.2669 11.76H26.1789V21.024C26.1789 21.312 26.1709 21.608 26.1549 21.912C26.1389 22.2 26.1149 22.496 26.0829 22.8C26.3389 22.784 26.5949 22.776 26.8509 22.776C27.1229 22.76 27.3709 22.744 27.5949 22.728V24H22.2429V22.992ZM24.8109 9.552C24.3949 9.552 24.0429 9.4 23.7549 9.096C23.4669 8.776 23.3229 8.392 23.3229 7.944C23.3229 7.496 23.4749 7.12 23.7789 6.816C24.0829 6.496 24.4269 6.336 24.8109 6.336C25.2269 6.336 25.5709 6.496 25.8429 6.816C26.1309 7.12 26.2749 7.496 26.2749 7.944C26.2749 8.392 26.1309 8.776 25.8429 9.096C25.5709 9.4 25.2269 9.552 24.8109 9.552ZM35.1285 24.384C34.0565 24.384 33.0725 24.144 32.1765 23.664C31.2805 23.168 30.5605 22.464 30.0165 21.552C29.4885 20.64 29.2245 19.536 29.2245 18.24C29.2245 17.376 29.3765 16.552 29.6805 15.768C29.9845 14.968 30.4085 14.256 30.9525 13.632C31.5125 13.008 32.1685 12.52 32.9205 12.168C33.6885 11.8 34.5365 11.616 35.4645 11.616C36.4085 11.616 37.2165 11.76 37.8885 12.048C38.5605 12.336 39.0725 12.712 39.4245 13.176C39.7925 13.64 39.9765 14.144 39.9765 14.688C39.9765 15.072 39.8645 15.408 39.6405 15.696C39.4165 15.984 39.0965 16.128 38.6805 16.128C38.2165 16.144 37.8885 16.008 37.6965 15.72C37.5045 15.416 37.4085 15.136 37.4085 14.88C37.4085 14.736 37.4325 14.576 37.4805 14.4C37.5285 14.208 37.6165 14.04 37.7445 13.896C37.6165 13.56 37.4085 13.312 37.1205 13.152C36.8325 12.992 36.5365 12.888 36.2325 12.84C35.9285 12.792 35.6725 12.768 35.4645 12.768C34.4885 12.784 33.6645 13.208 32.9925 14.04C32.3365 14.856 32.0085 16.04 32.0085 17.592C32.0085 18.584 32.1525 19.472 32.4405 20.256C32.7445 21.04 33.1845 21.664 33.7605 22.128C34.3365 22.592 35.0245 22.832 35.8245 22.848C36.5445 22.848 37.2405 22.664 37.9125 22.296C38.5845 21.912 39.1285 21.432 39.5445 20.856L40.3125 21.528C39.8485 22.248 39.3125 22.816 38.7045 23.232C38.1125 23.648 37.5045 23.944 36.8805 24.12C36.2725 24.296 35.6885 24.384 35.1285 24.384ZM49.5128 22.992C49.9928 22.992 50.3288 22.88 50.5208 22.656C50.7288 22.432 50.8488 22.12 50.8808 21.72C50.9288 21.32 50.9528 20.856 50.9528 20.328L50.9288 16.968C50.9288 15.704 50.7288 14.76 50.3288 14.136C49.9448 13.496 49.3208 13.184 48.4568 13.2C47.9288 13.216 47.4088 13.344 46.8968 13.584C46.4008 13.824 45.9848 14.128 45.6488 14.496V21.024C45.6488 21.312 45.6408 21.608 45.6248 21.912C45.6088 22.2 45.5848 22.496 45.5528 22.8C45.8088 22.784 46.0648 22.776 46.3208 22.776C46.5928 22.76 46.8408 22.744 47.0648 22.728V24H41.7128V22.992C42.1928 22.992 42.5288 22.88 42.7208 22.656C42.9128 22.432 43.0328 22.12 43.0808 21.72C43.1288 21.32 43.1528 20.856 43.1528 20.328V9.48C43.1528 9.208 43.1528 8.936 43.1528 8.664C43.1688 8.376 43.1928 8.072 43.2248 7.752C42.9528 7.768 42.6648 7.784 42.3608 7.8C42.0568 7.8 41.7768 7.808 41.5208 7.824V6.552C42.2408 6.552 42.8168 6.52 43.2488 6.456C43.6808 6.376 44.0088 6.288 44.2328 6.192C44.4728 6.096 44.6488 5.992 44.7608 5.88H45.6488V13.128C46.0008 12.84 46.3928 12.584 46.8248 12.36C47.2568 12.136 47.6968 11.96 48.1448 11.832C48.6088 11.688 49.0408 11.616 49.4408 11.616C50.8648 11.616 51.8808 12.048 52.4888 12.912C53.1128 13.776 53.4328 15.128 53.4488 16.968V21.024C53.4488 21.312 53.4408 21.608 53.4248 21.912C53.4248 22.2 53.4008 22.496 53.3528 22.8C53.6088 22.784 53.8728 22.776 54.1448 22.776C54.4168 22.76 54.6648 22.744 54.8888 22.728V24H49.5128V22.992ZM62.4834 24.384C61.3474 24.384 60.3234 24.128 59.4114 23.616C58.4994 23.104 57.7714 22.392 57.2274 21.48C56.6994 20.552 56.4354 19.488 56.4354 18.288C56.4354 16.992 56.6994 15.848 57.2274 14.856C57.7714 13.848 58.4994 13.056 59.4114 12.48C60.3234 11.904 61.3394 11.616 62.4594 11.616C63.5954 11.616 64.6194 11.88 65.5314 12.408C66.4434 12.92 67.1634 13.64 67.6914 14.568C68.2354 15.48 68.5074 16.536 68.5074 17.736C68.5074 19 68.2434 20.136 67.7154 21.144C67.1874 22.152 66.4674 22.944 65.5554 23.52C64.6594 24.096 63.6354 24.384 62.4834 24.384ZM62.6514 23.184C63.4194 23.168 64.0194 22.928 64.4514 22.464C64.8994 22 65.2194 21.408 65.4114 20.688C65.6034 19.952 65.6994 19.192 65.6994 18.408C65.6994 17.72 65.6354 17.048 65.5074 16.392C65.3954 15.72 65.2114 15.112 64.9554 14.568C64.6994 14.024 64.3634 13.592 63.9474 13.272C63.5314 12.936 63.0274 12.776 62.4354 12.792C61.6834 12.792 61.0674 13.024 60.5874 13.488C60.1234 13.952 59.7794 14.552 59.5554 15.288C59.3474 16.008 59.2434 16.776 59.2434 17.592C59.2434 18.536 59.3634 19.432 59.6034 20.28C59.8434 21.128 60.2114 21.824 60.7074 22.368C61.2194 22.912 61.8674 23.184 62.6514 23.184ZM70.1424 22.992C70.6224 22.992 70.9584 22.88 71.1504 22.656C71.3424 22.432 71.4544 22.12 71.4864 21.72C71.5344 21.32 71.5584 20.856 71.5584 20.328V9.48C71.5584 9.208 71.5584 8.936 71.5584 8.664C71.5744 8.376 71.5984 8.072 71.6304 7.752C71.3584 7.768 71.0704 7.784 70.7664 7.8C70.4624 7.8 70.1904 7.808 69.9504 7.824V6.552C70.6704 6.552 71.2384 6.52 71.6544 6.456C72.0864 6.376 72.4144 6.288 72.6384 6.192C72.8784 6.096 73.0544 5.992 73.1664 5.88H74.0784V21.024C74.0784 21.312 74.0704 21.608 74.0544 21.912C74.0384 22.2 74.0144 22.496 73.9824 22.8C74.2384 22.784 74.4944 22.776 74.7504 22.776C75.0224 22.76 75.2704 22.744 75.4944 22.728V24H70.1424V22.992ZM83.0342 24.384C81.9142 24.384 80.9062 24.128 80.0102 23.616C79.1302 23.088 78.4342 22.352 77.9222 21.408C77.4102 20.448 77.1542 19.32 77.1542 18.024C77.1542 16.904 77.4022 15.856 77.8982 14.88C78.4102 13.904 79.1222 13.12 80.0342 12.528C80.9462 11.92 82.0022 11.616 83.2022 11.616C83.8742 11.616 84.5062 11.72 85.0982 11.928C85.7062 12.136 86.2422 12.464 86.7062 12.912C87.1862 13.344 87.5622 13.912 87.8342 14.616C88.1062 15.304 88.2422 16.144 88.2422 17.136L79.9862 17.28C79.9862 18.368 80.1062 19.336 80.3462 20.184C80.6022 21.032 81.0102 21.688 81.5702 22.152C82.1302 22.616 82.8582 22.848 83.7542 22.848C84.1862 22.848 84.6422 22.776 85.1222 22.632C85.6182 22.472 86.0822 22.248 86.5142 21.96C86.9622 21.672 87.3382 21.328 87.6422 20.928L88.3862 21.576C87.9062 22.296 87.3542 22.864 86.7302 23.28C86.1062 23.68 85.4662 23.96 84.8102 24.12C84.1702 24.296 83.5782 24.384 83.0342 24.384ZM80.0822 16.032H85.6262C85.6262 15.424 85.5382 14.88 85.3622 14.4C85.2022 13.904 84.9462 13.512 84.5942 13.224C84.2422 12.936 83.7942 12.792 83.2502 12.792C82.4022 12.792 81.7062 13.064 81.1622 13.608C80.6182 14.136 80.2582 14.944 80.0822 16.032Z" fill="black"/>
</g>
<g filter="url(#filter1_d_1_8)">
<path d="M104.28 24.336L95.352 12.48C95.176 12.272 95.008 12.056 94.848 11.832C94.688 11.608 94.52 11.376 94.344 11.136H94.32L94.392 20.472C94.392 20.872 94.384 21.272 94.368 21.672C94.368 22.072 94.352 22.44 94.32 22.776C94.592 22.744 94.888 22.728 95.208 22.728C95.544 22.712 95.832 22.696 96.072 22.68V24H91.32V22.944C91.768 22.944 92.104 22.856 92.328 22.68C92.568 22.504 92.728 22.272 92.808 21.984C92.904 21.696 92.952 21.36 92.952 20.976V10.224C92.952 9.904 92.952 9.584 92.952 9.264C92.952 8.944 92.96 8.664 92.976 8.424C92.72 8.44 92.432 8.456 92.112 8.472C91.808 8.488 91.536 8.504 91.296 8.52V7.2H94.464L102.912 18.312C103.184 18.664 103.424 18.992 103.632 19.296C103.856 19.6 104.072 19.888 104.28 20.16H104.304L104.328 10.296C104.328 9.944 104.336 9.608 104.352 9.288C104.368 8.952 104.384 8.664 104.4 8.424C104.112 8.44 103.808 8.456 103.488 8.472C103.168 8.488 102.888 8.504 102.648 8.52V7.2H107.4V8.256C106.888 8.272 106.512 8.384 106.272 8.592C106.048 8.784 105.904 9.072 105.84 9.456C105.792 9.824 105.768 10.312 105.768 10.92L105.744 24.336H104.28ZM114.694 30.504C113.286 30.504 112.15 30.344 111.286 30.024C110.438 29.72 109.822 29.32 109.438 28.824C109.07 28.344 108.886 27.832 108.886 27.288C108.886 26.856 108.982 26.456 109.174 26.088C109.382 25.72 109.654 25.392 109.99 25.104C110.326 24.832 110.702 24.616 111.118 24.456C110.558 24.28 110.134 24.032 109.846 23.712C109.558 23.376 109.414 22.968 109.414 22.488C109.414 21.976 109.614 21.472 110.014 20.976C110.43 20.48 111.022 20.144 111.79 19.968C111.07 19.648 110.494 19.184 110.062 18.576C109.63 17.968 109.406 17.248 109.39 16.416C109.374 15.456 109.614 14.616 110.11 13.896C110.622 13.176 111.27 12.616 112.054 12.216C112.854 11.816 113.686 11.616 114.55 11.616C115.046 11.616 115.558 11.688 116.086 11.832C116.614 11.96 117.094 12.168 117.526 12.456C117.702 11.992 117.934 11.568 118.222 11.184C118.51 10.8 118.846 10.496 119.23 10.272C119.63 10.048 120.046 9.936 120.478 9.936C120.942 9.936 121.294 10.056 121.534 10.296C121.774 10.536 121.894 10.856 121.894 11.256C121.894 11.384 121.854 11.544 121.774 11.736C121.71 11.912 121.59 12.064 121.414 12.192C121.238 12.32 120.998 12.384 120.694 12.384C120.438 12.384 120.206 12.304 119.998 12.144C119.806 11.968 119.686 11.76 119.638 11.52C119.302 11.584 119.022 11.784 118.798 12.12C118.59 12.44 118.454 12.768 118.39 13.104C118.806 13.472 119.126 13.912 119.35 14.424C119.59 14.92 119.71 15.456 119.71 16.032C119.71 16.944 119.462 17.752 118.966 18.456C118.486 19.16 117.854 19.712 117.07 20.112C116.286 20.512 115.438 20.712 114.526 20.712C114.254 20.712 113.998 20.696 113.758 20.664C113.518 20.616 113.254 20.592 112.966 20.592C112.454 20.592 112.03 20.712 111.694 20.952C111.374 21.192 111.254 21.48 111.334 21.816C111.414 22.168 111.75 22.4 112.342 22.512C112.934 22.624 113.79 22.704 114.91 22.752C116.142 22.8 117.198 22.952 118.078 23.208C118.974 23.448 119.662 23.824 120.142 24.336C120.638 24.848 120.886 25.544 120.886 26.424C120.886 27.08 120.702 27.664 120.334 28.176C119.982 28.688 119.502 29.112 118.894 29.448C118.302 29.8 117.638 30.064 116.902 30.24C116.166 30.416 115.43 30.504 114.694 30.504ZM114.91 29.328C116.206 29.328 117.206 29.088 117.91 28.608C118.63 28.128 118.99 27.584 118.99 26.976C118.99 26.464 118.814 26.064 118.462 25.776C118.11 25.504 117.614 25.304 116.974 25.176C116.35 25.064 115.614 25 114.766 24.984C114.35 24.952 113.926 24.928 113.494 24.912C113.062 24.896 112.662 24.856 112.294 24.792C111.926 25.048 111.638 25.36 111.43 25.728C111.238 26.096 111.134 26.48 111.118 26.88C111.118 27.616 111.462 28.208 112.15 28.656C112.838 29.104 113.758 29.328 114.91 29.328ZM114.598 19.584C115.142 19.584 115.59 19.448 115.942 19.176C116.31 18.888 116.582 18.512 116.758 18.048C116.95 17.568 117.046 17.048 117.046 16.488C117.046 15.832 116.95 15.216 116.758 14.64C116.566 14.064 116.286 13.6 115.918 13.248C115.55 12.896 115.078 12.72 114.502 12.72C113.718 12.72 113.11 13.032 112.678 13.656C112.246 14.28 112.03 15.032 112.03 15.912C112.03 16.616 112.126 17.248 112.318 17.808C112.526 18.352 112.822 18.784 113.206 19.104C113.59 19.424 114.054 19.584 114.598 19.584ZM127.455 24.384C126.559 24.384 125.815 24.216 125.223 23.88C124.647 23.544 124.215 22.992 123.927 22.224C123.639 21.44 123.495 20.408 123.495 19.128V15.36C123.495 15.088 123.495 14.808 123.495 14.52C123.511 14.216 123.543 13.92 123.591 13.632C123.319 13.648 123.031 13.664 122.727 13.68C122.423 13.68 122.151 13.688 121.911 13.704V12.432H122.487C123.287 12.432 123.887 12.36 124.287 12.216C124.687 12.072 124.967 11.92 125.127 11.76H126.039V19.08C126.039 20.344 126.215 21.288 126.567 21.912C126.919 22.536 127.511 22.84 128.343 22.824C128.887 22.824 129.407 22.664 129.903 22.344C130.415 22.024 130.831 21.648 131.151 21.216V15.528C131.151 15.176 131.159 14.848 131.175 14.544C131.191 14.224 131.223 13.92 131.271 13.632C130.983 13.648 130.687 13.664 130.383 13.68C130.079 13.68 129.799 13.688 129.543 13.704V12.432H130.239C130.943 12.432 131.495 12.36 131.895 12.216C132.295 12.072 132.583 11.92 132.759 11.76H133.671L133.647 20.592C133.647 20.848 133.639 21.2 133.623 21.648C133.607 22.08 133.583 22.464 133.551 22.8C133.823 22.784 134.103 22.768 134.391 22.752C134.695 22.736 134.975 22.728 135.231 22.728V24H131.415C131.383 23.744 131.351 23.504 131.319 23.28C131.303 23.056 131.279 22.84 131.247 22.632C130.751 23.096 130.175 23.504 129.519 23.856C128.863 24.208 128.175 24.384 127.455 24.384ZM138.823 30.504C138.295 30.504 137.839 30.36 137.455 30.072C137.087 29.8 136.903 29.4 136.903 28.872C136.903 28.536 137.007 28.232 137.215 27.96C137.439 27.688 137.727 27.552 138.079 27.552C138.463 27.536 138.735 27.656 138.895 27.912C139.071 28.168 139.159 28.432 139.159 28.704C139.159 28.752 139.159 28.8 139.159 28.848C139.159 28.896 139.151 28.952 139.135 29.016C139.183 29.048 139.255 29.056 139.351 29.04C139.527 29.024 139.719 28.928 139.927 28.752C140.135 28.576 140.327 28.328 140.503 28.008C140.695 27.656 140.911 27.168 141.151 26.544C141.391 25.92 141.655 25.2 141.943 24.384L138.175 16.512C137.743 15.616 137.439 14.92 137.263 14.424C137.103 13.912 136.999 13.512 136.951 13.224L135.799 13.272V12H141.103V12.984H141.055C140.399 13.048 140.039 13.296 139.975 13.728C139.927 14.16 140.079 14.752 140.431 15.504L143.071 21.312C143.375 20.496 143.679 19.608 143.983 18.648C144.303 17.688 144.631 16.704 144.967 15.696C145.079 15.392 145.191 15.072 145.303 14.736C145.431 14.384 145.559 14.064 145.687 13.776C145.831 13.488 145.967 13.288 146.095 13.176L144.535 13.272V12H148.471V12.984C147.911 13.176 147.471 13.528 147.151 14.04C146.847 14.552 146.551 15.2 146.263 15.984L143.263 24.432C142.799 25.76 142.367 26.872 141.967 27.768C141.567 28.68 141.119 29.36 140.623 29.808C140.143 30.272 139.543 30.504 138.823 30.504ZM155.128 24.384C154.008 24.384 153 24.128 152.104 23.616C151.224 23.088 150.528 22.352 150.016 21.408C149.504 20.448 149.248 19.32 149.248 18.024C149.248 16.904 149.496 15.856 149.992 14.88C150.504 13.904 151.216 13.12 152.128 12.528C153.04 11.92 154.096 11.616 155.296 11.616C155.968 11.616 156.6 11.72 157.192 11.928C157.8 12.136 158.336 12.464 158.8 12.912C159.28 13.344 159.656 13.912 159.928 14.616C160.2 15.304 160.336 16.144 160.336 17.136L152.08 17.28C152.08 18.368 152.2 19.336 152.44 20.184C152.696 21.032 153.104 21.688 153.664 22.152C154.224 22.616 154.952 22.848 155.848 22.848C156.28 22.848 156.736 22.776 157.216 22.632C157.712 22.472 158.176 22.248 158.608 21.96C159.056 21.672 159.432 21.328 159.736 20.928L160.48 21.576C160 22.296 159.448 22.864 158.824 23.28C158.2 23.68 157.56 23.96 156.904 24.12C156.264 24.296 155.672 24.384 155.128 24.384ZM152.176 16.032H157.72C157.72 15.424 157.632 14.88 157.456 14.4C157.296 13.904 157.04 13.512 156.688 13.224C156.336 12.936 155.888 12.792 155.344 12.792C154.496 12.792 153.8 13.064 153.256 13.608C152.712 14.136 152.352 14.944 152.176 16.032ZM162.352 24V22.992C162.832 22.992 163.168 22.88 163.36 22.656C163.552 22.432 163.664 22.12 163.696 21.72C163.744 21.32 163.768 20.856 163.768 20.328L163.792 15.336C163.792 15.08 163.792 14.808 163.792 14.52C163.808 14.216 163.84 13.92 163.888 13.632C163.6 13.648 163.304 13.664 163 13.68C162.712 13.68 162.44 13.688 162.184 13.704V12.432C162.904 12.432 163.464 12.4 163.864 12.336C164.28 12.256 164.592 12.168 164.8 12.072C165.024 11.976 165.192 11.872 165.304 11.76H166.168C166.184 11.904 166.192 12.04 166.192 12.168C166.208 12.296 166.216 12.432 166.216 12.576C166.232 12.72 166.248 12.904 166.264 13.128C166.616 12.84 167 12.584 167.416 12.36C167.832 12.136 168.264 11.96 168.712 11.832C169.176 11.688 169.616 11.616 170.032 11.616C171.456 11.616 172.48 12.048 173.104 12.912C173.744 13.776 174.064 15.128 174.064 16.968V21.024C174.064 21.312 174.056 21.608 174.04 21.912C174.024 22.2 174 22.496 173.968 22.8C174.224 22.784 174.48 22.776 174.736 22.776C175.008 22.76 175.256 22.744 175.48 22.728V24H170.128V22.992C170.608 22.992 170.944 22.88 171.136 22.656C171.328 22.432 171.44 22.12 171.472 21.72C171.52 21.32 171.544 20.856 171.544 20.328V16.968C171.528 15.704 171.32 14.752 170.92 14.112C170.536 13.472 169.912 13.16 169.048 13.176C168.536 13.176 168.032 13.304 167.536 13.56C167.04 13.816 166.624 14.128 166.288 14.496C166.288 14.656 166.288 14.832 166.288 15.024C166.288 15.2 166.288 15.384 166.288 15.576V21.024C166.288 21.312 166.28 21.608 166.264 21.912C166.248 22.2 166.224 22.496 166.192 22.8C166.448 22.784 166.704 22.776 166.96 22.776C167.232 22.76 167.48 22.744 167.704 22.728V24H162.352Z" fill="#0070C2"/>
</g>
<defs>
<filter id="filter0_d_1_8" x="0.295998" y="5.88" width="92.0902" height="26.504" filterUnits="userSpaceOnUse" color-interpolation-filters="sRGB">
<feFlood flood-opacity="0" result="BackgroundImageFix"/>
<feColorMatrix in="SourceAlpha" type="matrix" values="0 0 0 0 0 0 0 0 0 0 0 0 0 0 0 0 0 0 127 0" result="hardAlpha"/>
<feOffset dy="4"/>
<feGaussianBlur stdDeviation="2"/>
<feComposite in2="hardAlpha" operator="out"/>
<feColorMatrix type="matrix" values="0 0 0 0 0 0 0 0 0 0 0 0 0 0 0 0 0 0 0.25 0"/>
<feBlend mode="normal" in2="BackgroundImageFix" result="effect1_dropShadow_1_8"/>
<feBlend mode="normal" in="SourceGraphic" in2="effect1_dropShadow_1_8" result="shape"/>
</filter>
<filter id="filter1_d_1_8" x="87.296" y="7.2" width="92.1843" height="31.304" filterUnits="userSpaceOnUse" color-interpolation-filters="sRGB">
<feFlood flood-opacity="0" result="BackgroundImageFix"/>
<feColorMatrix in="SourceAlpha" type="matrix" values="0 0 0 0 0 0 0 0 0 0 0 0 0 0 0 0 0 0 127 0" result="hardAlpha"/>
<feOffset dy="4"/>
<feGaussianBlur stdDeviation="2"/>
<feComposite in2="hardAlpha" operator="out"/>
<feColorMatrix type="matrix" values="0 0 0 0 0 0 0 0 0 0 0 0 0 0 0 0 0 0 0.25 0"/>
<feBlend mode="normal" in2="BackgroundImageFix" result="effect1_dropShadow_1_8"/>
<feBlend mode="normal" in="SourceGraphic" in2="effect1_dropShadow_1_8" result="shape"/>
</filter>
</defs>
</svg>
